<svg xmlns="http://www.w3.org/2000/svg" height="100%" width="100%" fill-rule="evenodd" stroke-linejoin="round" stroke-miterlimit="2" clip-rule="evenodd" viewBox="0 0 635 165"><g fill="#38146a"><g fill-rule="nonzero"><path d="M317.7 126.4a21.6 21.6 0 0011.6-3.4V76c-1.1-.6-2.5-1.1-4.1-1.5-1.6-.3-3.3-.5-5-.5-2.4 0-4.6.4-6.6 1.3s-3.7 2.4-5.2 4.5c-1.4 2-2.5 4.8-3.4 8.3-.8 3.5-1.2 7.8-1.2 13 0 9.3 1.3 15.8 3.8 19.6 2.6 3.8 6 5.7 10.1 5.7zm26.3 10.4c-3.4 0-6.2-.7-8.4-2.1a13.2 13.2 0 01-5-6.1 25.5 25.5 0 01-19.5 8.5c-3.9 0-7.4-.6-10.8-2a22.3 22.3 0 01-8.6-6 29 29 0 01-5.7-10.5c-1.4-4.2-2-9.3-2-15.1 0-12.5 3-22 9.3-28.3 6.3-6.5 15-9.7 26-9.7a44.8 44.8 0 0110 1v-23c0-1-.2-1.9-.7-2.4-.5-.6-1.3-1-2.2-1.2l-8.3-1.2v-7.5a109.3 109.3 0 0127.5-3.6L348 30v92.8c0 1.3.3 2.3.8 2.8.6.5 1.4.8 2.4 1l6.3.7v7.2a71.4 71.4 0 01-13.6 2.3zM398.4 73.7a10 10 0 00-8 3.9c-2.1 2.6-3.5 7-4 13.1H409v-2.8a18 18 0 00-2.6-10.2c-1.8-2.6-4.5-4-8-4zm27.9 47a20.8 20.8 0 01-9.9 12.2c-5 3-11 4.3-18.1 4.3a36 36 0 01-14.1-2.5 26.2 26.2 0 01-15.7-18.1 51.5 51.5 0 01-1.9-14.5c0-11.7 3-20.8 8.9-27a32 32 0 0124.5-9.5c8.8 0 15.5 2.1 20 6.4 4.4 4.3 6.7 10 6.7 17a50.3 50.3 0 01-1 9.2H386v.4c0 9.6 1.4 16.4 4.3 20.6 2.9 4.1 7.4 6.2 13.6 6.2 3.5 0 6.8-.7 10-2a19 19 0 007.8-5.8l4.6 3.2zM473.4 128v7.7h-36V128l6.8-1.2c.9-.2 1.6-.6 2.1-1.2.6-.6.8-1.3.8-2.3V82c0-1-.2-1.8-.7-2.4-.5-.7-1.2-1-2.1-1.2l-7.7-1.4V69a91.2 91.2 0 0124.5-3.4l2.7 2.5 1.1 6.6c2.8-3.1 6-5.4 9.8-6.8 3.8-1.5 7.8-2.2 12.1-2.2 4.8 0 8.6.8 11.5 2.5 2.9 1.6 5 4 6.5 7 3.1-3.3 6.7-5.8 10.7-7.3 4-1.5 8.3-2.2 12.7-2.2 8.1 0 13.7 2.3 16.6 7 3 4.6 4.4 11.1 4.4 19.6v30.9c0 1 .3 1.8.8 2.4.5.6 1.2 1 2.2 1l6.8 1.3v7.7h-36V128l4.6-1.2c1-.2 1.6-.6 2.1-1.2.5-.5.8-1.3.8-2.3V94.7c0-6-.9-10.5-2.6-13.2-1.8-2.8-4.8-4.2-9-4.2a22.4 22.4 0 00-12.2 3.8 43.3 43.3 0 01.9 10.7v31.5c0 1 .2 1.8.7 2.3a5 5 0 002 1.2l4.8 1.2v7.7h-33.8V128l4.6-1.2a5 5 0 002.1-1.2c.5-.5.8-1.3.8-2.3v-29c0-6-.8-10.3-2.4-13-1.6-2.6-4.4-4-8.5-4a24 24 0 00-12 3.5v42.5c0 1 .2 1.8.7 2.3.4.5 1 .9 2 1.2l4.8 1.2zM567.4 102c0-6.5.9-12.1 2.7-16.8 1.8-4.7 4.2-8.5 7.3-11.3 3.1-3 6.8-5 11-6.4a45 45 0 0113.7-2c10.6 0 18.7 3 24.3 9 5.7 6 8.5 14.8 8.5 26.3 0 6.6-1 12.2-2.7 16.8A29.6 29.6 0 01625 129c-3.1 3-6.8 5-11 6.4-4.3 1.3-8.9 2-13.8 2-10.5 0-18.6-3-24.2-9-5.7-6-8.5-14.7-8.5-26.2zm47.1.2c0-9.7-1-16.9-3-21.5-1.9-4.5-5.5-6.8-10.7-6.8-4.4 0-7.7 2-9.8 6a47 47 0 00-3.3 20.7c0 9.7 1 16.8 3 21.4 1.9 4.6 5.5 7 10.8 7 4.4 0 7.6-2 9.8-6 2.1-4.1 3.2-11 3.2-20.8zM16.6 53.8a50 50 0 014.1-19.5A63.8 63.8 0 0131.3 17c4.4-5 9.4-9.2 15-12.3a34.5 34.5 0 0130.6-2 76 76 0 0112.4 6.5l-5.5 16A136.2 136.2 0 0063.7 23c-6.4 0-11.2 1.4-14.5 4.1-3.3 2.7-5 8.3-5 16.8v16h29.4v15.9H44.3v68.3c0 1.5.4 2.7 1.2 3.5.9.9 2 1.3 3.5 1.5l18.7 2v11.6H1.4v-11.6l10.2-1.8c1.5-.2 2.6-.7 3.4-1.6.7-.8 1.1-2 1.1-3.5v-68L0 73.8V62.6l16.6-2.8v-6zM136.3 148.6a32.5 32.5 0 0017.5-5V72.8c-1.8-1-3.9-1.7-6.3-2.3-2.4-.5-4.9-.8-7.4-.8-3.6 0-7 .7-10 2s-5.5 3.6-7.7 6.7a37 37 0 00-5.1 12.6 86.9 86.9 0 00-1.9 19.5c0 14 2 23.8 5.8 29.5 3.8 5.7 8.8 8.5 15.1 8.5zm39.5 15.8c-5 0-9.3-1.1-12.6-3.3a19.9 19.9 0 01-7.4-9.1 38.3 38.3 0 01-29.4 12.8 44 44 0 01-16.2-3c-5-1.9-9.4-5-13-9a43.6 43.6 0 01-8.6-15.8c-2-6.4-3.1-14-3.1-22.9 0-18.6 4.7-32.8 14.2-42.5A52.3 52.3 0 01138.8 57a67.2 67.2 0 0115 1.5V24c0-1.5-.4-2.7-1.2-3.6a5.3 5.3 0 00-3.3-1.7L137 16.8V5.5a164.3 164.3 0 0131.4-5c3.6-.4 6.9-.5 9.9-.5l3.8 3.6v139.7c0 2 .4 3.4 1.3 4.1.9.8 2 1.3 3.5 1.5l9.5 1v11c-2.2.7-5.3 1.4-9.2 2.2-4 .8-7.7 1.3-11.3 1.3z"/></g><path d="M235.9 0h7.1v164.8h-7.1z"/></g></svg>
